<svg width="184" height="135" viewBox="0 0 184 135" fill="none" xmlns="http://www.w3.org/2000/svg">
<path d="M31.375 134.167C23.0417 134.167 15.925 131.181 10.025 125.208C4.125 119.236 1.03333 112.014 0.75 103.542C0.75 102.292 0.819445 101.042 0.958334 99.7917C1.09722 98.5417 1.30556 97.2917 1.58333 96.0417L19.0833 26.0417C21.0278 18.5417 24.9861 12.4639 30.9583 7.80838C36.9306 3.15283 43.7361 0.827828 51.375 0.833384H132.625C140.264 0.833384 147.069 3.16116 153.042 7.81672C159.014 12.4723 162.972 18.5473 164.917 26.0417L182.417 96.0417C182.694 97.2917 182.939 98.5778 183.15 99.9C183.361 101.222 183.464 102.506 183.458 103.75C183.458 112.222 180.436 119.411 174.392 125.317C168.347 131.222 161.094 134.172 152.633 134.167C146.8 134.167 141.383 132.639 136.383 129.583C131.383 126.528 127.633 122.361 125.133 117.083L119.3 105C118.606 103.611 117.564 102.569 116.175 101.875C114.786 101.181 113.325 100.833 111.792 100.833H72.2083C70.6805 100.833 69.2222 101.181 67.8333 101.875C66.4444 102.569 65.4028 103.611 64.7083 105L58.875 117.083C56.375 122.361 52.625 126.528 47.625 129.583C42.625 132.639 37.2083 134.167 31.375 134.167ZM32 117.5C34.6389 117.5 37.0361 116.806 39.1917 115.417C41.3472 114.028 42.9778 112.153 44.0833 109.792L49.9167 97.9167C52 93.6112 55.0556 90.2417 59.0833 87.8084C63.1111 85.375 67.4861 84.1612 72.2083 84.1667H111.792C116.514 84.1667 120.889 85.4167 124.917 87.9167C128.944 90.4167 132.069 93.75 134.292 97.9167L140.125 109.792C141.236 112.153 142.869 114.028 145.025 115.417C147.181 116.806 149.575 117.5 152.208 117.5C156.097 117.5 159.431 116.214 162.208 113.642C164.986 111.069 166.444 107.842 166.583 103.958C166.583 104.097 166.444 102.778 166.167 100L148.667 30.2084C147.694 26.4584 145.75 23.4028 142.833 21.0417C139.917 18.6806 136.514 17.5 132.625 17.5H51.375C47.4861 17.5 44.0472 18.6806 41.0583 21.0417C38.0694 23.4028 36.1611 26.4584 35.3333 30.2084L17.8333 100C17.5556 100.833 17.4167 102.083 17.4167 103.75C17.4167 107.639 18.8417 110.903 21.6917 113.542C24.5417 116.181 27.9778 117.5 32 117.5ZM104.5 59.1667C106.861 59.1667 108.842 58.3667 110.442 56.7667C112.042 55.1667 112.839 53.1889 112.833 50.8334C112.833 48.4723 112.033 46.4917 110.433 44.8917C108.833 43.2917 106.856 42.4945 104.5 42.5C102.139 42.5 100.158 43.3 98.5583 44.9C96.9583 46.5 96.1611 48.4778 96.1667 50.8334C96.1667 53.1945 96.9667 55.175 98.5667 56.775C100.167 58.375 102.144 59.1723 104.5 59.1667ZM121.167 42.5C123.528 42.5 125.508 41.7 127.108 40.1C128.708 38.5 129.506 36.5223 129.5 34.1667C129.5 31.8056 128.7 29.8251 127.1 28.2251C125.5 26.6251 123.522 25.8278 121.167 25.8334C118.806 25.8334 116.825 26.6334 115.225 28.2334C113.625 29.8334 112.828 31.8112 112.833 34.1667C112.833 36.5278 113.633 38.5084 115.233 40.1084C116.833 41.7084 118.811 42.5056 121.167 42.5ZM121.167 75.8334C123.528 75.8334 125.508 75.0334 127.108 73.4334C128.708 71.8334 129.506 69.8556 129.5 67.5C129.5 65.1389 128.7 63.1584 127.1 61.5584C125.5 59.9584 123.522 59.1612 121.167 59.1667C118.806 59.1667 116.825 59.9667 115.225 61.5667C113.625 63.1667 112.828 65.1445 112.833 67.5C112.833 69.8612 113.633 71.8417 115.233 73.4417C116.833 75.0417 118.811 75.8389 121.167 75.8334ZM137.833 59.1667C140.194 59.1667 142.175 58.3667 143.775 56.7667C145.375 55.1667 146.172 53.1889 146.167 50.8334C146.167 48.4723 145.367 46.4917 143.767 44.8917C142.167 43.2917 140.189 42.4945 137.833 42.5C135.472 42.5 133.492 43.3 131.892 44.9C130.292 46.5 129.494 48.4778 129.5 50.8334C129.5 53.1945 130.3 55.175 131.9 56.775C133.5 58.375 135.478 59.1723 137.833 59.1667ZM62.8333 71.6667C64.6389 71.6667 66.1305 71.075 67.3083 69.8917C68.4861 68.7084 69.0778 67.2167 69.0833 65.4167V57.0834H77.4167C79.2222 57.0834 80.7139 56.4917 81.8917 55.3084C83.0694 54.125 83.6611 52.6334 83.6667 50.8334C83.6667 49.0278 83.075 47.5362 81.8917 46.3584C80.7083 45.1806 79.2167 44.5889 77.4167 44.5834H69.0833V36.25C69.0833 34.4445 68.4917 32.9528 67.3083 31.775C66.125 30.5973 64.6333 30.0056 62.8333 30C61.0278 30 59.5361 30.5917 58.3583 31.775C57.1806 32.9584 56.5889 34.45 56.5833 36.25V44.5834H48.25C46.4444 44.5834 44.9528 45.175 43.775 46.3584C42.5972 47.5417 42.0056 49.0334 42 50.8334C42 52.6389 42.5917 54.1306 43.775 55.3084C44.9583 56.4862 46.45 57.0778 48.25 57.0834H56.5833V65.4167C56.5833 67.2223 57.175 68.7139 58.3583 69.8917C59.5417 71.0695 61.0333 71.6612 62.8333 71.6667Z" fill="white"/>
</svg>
